#define 30fe0e1855a9411fa01276dec6415ba9_width 50
#define 30fe0e1855a9411fa01276dec6415ba9_height 34
static char 30fe0e1855a9411fa01276dec6415ba9_bits[] = {
  0x00, 0x00, 0x00, 0x00, 0x00, 0x00, 0x00, 0x00, 0x00, 0x00, 0x00, 0x00, 
  0x00, 0x00, 0x00, 0x00, 0x00, 0x00, 0x00, 0x00, 0x00, 0x00, 0x00, 0xC0, 
  0x0F, 0x00, 0x00, 0x00, 0x00, 0x00, 0xF8, 0x7F, 0x00, 0x00, 0x00, 0x00, 
  0x00, 0xBC, 0xE2, 0x01, 0x00, 0x00, 0x00, 0x00, 0x47, 0xD9, 0x03, 0x00, 
  0x00, 0x00, 0x80, 0xBF, 0xB6, 0x07, 0x00, 0x00, 0x00, 0xC0, 0x9B, 0xAF, 
  0x0F, 0x00, 0x00, 0x00, 0xE0, 0xFF, 0xFB, 0x0F, 0x00, 0x00, 0x00, 0xE0, 
  0xFF, 0x7F, 0x1F, 0x00, 0x00, 0x00, 0xF0, 0xE6, 0xBD, 0x3F, 0x00, 0x00, 
  0x00, 0xF0, 0xE7, 0x8F, 0x3F, 0x00, 0x00, 0x00, 0xF0, 0x87, 0x87, 0x3F, 
  0x00, 0x00, 0x00, 0xF0, 0x0F, 0xC7, 0x3F, 0x00, 0x00, 0x00, 0xF8, 0x1F, 
  0xE2, 0x7F, 0x00, 0x00, 0x00, 0xF8, 0x3F, 0xF0, 0x7F, 0x00, 0x00, 0x00, 
  0xF8, 0x7F, 0xF8, 0x7F, 0x00, 0x00, 0x00, 0xF8, 0x7F, 0xF8, 0x7F, 0x00, 
  0x00, 0x00, 0xF8, 0x3F, 0xF1, 0x3F, 0x00, 0x00, 0x00, 0xF0, 0x1F, 0xE3, 
  0x3F, 0x00, 0x00, 0x00, 0xF0, 0x8F, 0x87, 0x3F, 0x00, 0x00, 0x00, 0xF0, 
  0xC7, 0x8F, 0x3F, 0x00, 0x00, 0x00, 0xE0, 0xE7, 0x9F, 0x1F, 0x00, 0x00, 
  0x00, 0xC0, 0xFF, 0xFF, 0x2F, 0x00, 0x00, 0x00, 0xE0, 0xFF, 0xFF, 0x0F, 
  0x00, 0x00, 0x00, 0x80, 0xFF, 0xFF, 0x17, 0x00, 0x00, 0x00, 0x40, 0xFF, 
  0xFF, 0x03, 0x00, 0x00, 0x00, 0x00, 0xFC, 0xFF, 0x04, 0x00, 0x00, 0x00, 
  0x00, 0xFA, 0x7F, 0x01, 0x00, 0x00, 0x00, 0x00, 0x08, 0x40, 0x00, 0x00, 
  0x00, 0x00, 0x00, 0x60, 0x1F, 0x00, 0x00, 0x00, 0x00, 0x00, 0x00, 0x00, 
  0x00, 0x50, 0x01, 0x00, 0x00, 0x00, 0x00, 0x00, 0xA0, 0x00, };
