#define 7a3b7228e9c44eadca74104d69a02ea4_width 19
#define 7a3b7228e9c44eadca74104d69a02ea4_height 19
static char 7a3b7228e9c44eadca74104d69a02ea4_bits[] = {
  0x00, 0x00, 0x02, 0x00, 0x00, 0x03, 0x00, 0x80, 0x01, 0x00, 0xC0, 0x00, 
  0xC0, 0x7F, 0x00, 0xF0, 0x3F, 0x00, 0xF8, 0x9F, 0x00, 0x3C, 0xCE, 0x01, 
  0x2E, 0xA6, 0x03, 0x67, 0x33, 0x07, 0xE3, 0x39, 0x06, 0xE6, 0x3C, 0x03, 
  0x7E, 0x9E, 0x03, 0x38, 0xE6, 0x00, 0x98, 0x7F, 0x00, 0xCC, 0x1F, 0x00, 
  0x06, 0x00, 0x00, 0x03, 0x00, 0x00, 0x01, 0x00, 0x00, };
