#define de2910c894de4ea28ab0055ac55c114d_width 23
#define de2910c894de4ea28ab0055ac55c114d_height 13
static char de2910c894de4ea28ab0055ac55c114d_bits[] = {
  0x00, 0x3E, 0x00, 0xC0, 0xFF, 0x01, 0xF0, 0xE3, 0x07, 0x38, 0xC8, 0x0E, 
  0x0C, 0xBE, 0x19, 0xC6, 0x3C, 0x31, 0x43, 0x7F, 0x61, 0x46, 0x3E, 0x31, 
  0xDC, 0xBE, 0x19, 0xB8, 0xC8, 0x0E, 0xF0, 0xE3, 0x07, 0xC0, 0xFF, 0x01, 
  0x00, 0x3E, 0x00, };
